# xmcd CD database file
#
# Track frame offsets:
#	150
#	16052
#	37579
#	62481
#	87383
#	105385
#	124137
#	152639
#	168016
#	182718
#	208295
#	224872
#	255324
#
# Disc length: 3813 seconds
#
# Revision: 1
# Processed by: cddbd v1.5.2PL0 Copyright (c) Steve Scherf et al.
# Submitted via: CDex 1.51
#
DISCID=a40ee30d
DTITLE=Billie Holiday - Lo mejor de
DYEAR=1995
DGENRE=Blues
TTITLE0=Cheek to cheek
TTITLE1=Sophisticated lady
TTITLE2=Just one of those things
TTITLE3=Comes love
TTITLE4=The can't take that away from me
TTITLE5=Body and soul
TTITLE6=I wished on the moon
TTITLE7=Say it isn't so
TTITLE8=One for my baby (and one more for the road)
TTITLE9=Love is here to stay
TTITLE10=Embraceable you
TTITLE11=Day in, day out
TTITLE12=Bonus track
EXTD=YEAR: 1995
EXTT0=
EXTT1=
EXTT2=
EXTT3=
EXTT4=
EXTT5=
EXTT6=
EXTT7=
EXTT8=
EXTT9=
EXTT10=
EXTT11=
EXTT12=
PLAYORDER=
